<?xml version="1.0" encoding="iso-8859-1"?>
<!-- Uploaded to: SVG Repo, www.svgrepo.com, Generator: SVG Repo Mixer Tools -->
<svg fill="#003A48" version="1.1" id="Layer_1" xmlns="http://www.w3.org/2000/svg" xmlns:xlink="http://www.w3.org/1999/xlink" 
	 viewBox="0 0 512 512" xml:space="preserve">
<g>
	<g>
		<path d="M405.394,1.404H0.603V344.77H512V107.441L405.394,1.404z M414.588,54.71l43.815,43.581h-43.815V54.71z M480.69,313.46
			H31.913V32.714h351.365v96.888h97.412V313.46z"/>
	</g>
</g>
<g>
	<g>
		<polygon points="128.974,191.985 128.974,120.729 348.144,120.729 348.144,89.419 128.974,89.419 128.974,60.893 97.664,60.893 
			97.664,89.419 61.136,89.419 61.136,120.729 97.664,120.729 97.664,191.985 61.136,191.985 61.136,223.295 97.664,223.295 
			97.664,289.456 128.974,289.456 128.974,223.295 447.639,223.295 447.639,191.985 		"/>
	</g>
</g>
<g>
	<g>
		<rect x="351.966" y="252.922" width="95.673" height="31.31"/>
	</g>
</g>
<g>
	<g>
		<path d="M125.948,368.793L0,439.695l125.948,70.901H512V368.793H125.948z M121.444,472.131l-42.566-23.963v-16.947l42.566-23.962
			V472.131z M419.113,479.286H152.753v-79.183h266.359V479.286z M480.69,479.286h-30.266v-79.183h30.266V479.286z"/>
	</g>
</g>
</svg>
